<svg xmlns="http://www.w3.org/2000/svg" width="200" height="200" style="shape-rendering:geometricPrecision;text-rendering:geometricPrecision;image-rendering:optimizeQuality;fill-rule:evenodd;clip-rule:evenodd"><path style="opacity:.906" d="M33.5 23.5c44.344-.306 88.677.194 133 1.5 8.239 2.573 13.405 8.073 15.5 16.5a240.38 240.38 0 0 1 0 31c-4 4-8 4-12 0a558.654 558.654 0 0 0-2-28c-.833-3.5-3-5.667-6.5-6.5a3844.058 3844.058 0 0 0-124 0c-3.413 1.077-5.913 3.244-7.5 6.5-.72 24.332-1.386 48.665-2 73-3.925 3.91-7.925 3.91-12 0a1444.178 1444.178 0 0 1 0-76c2.683-9.182 8.517-15.182 17.5-18Z"/><path style="opacity:.908" d="M72.5 48.5c20.018.056 27.518 9.723 22.5 29-7.05 10.014-16.216 12.514-27.5 7.5-9.39-7.302-11.557-16.469-6.5-27.5 3.136-3.978 6.97-6.978 11.5-9Z"/><path style="opacity:.886" d="M173.5 88.5c3.47-.625 6.304.375 8.5 3a379.75 379.75 0 0 1 0 67c-3.351 8.02-9.184 13.187-17.5 15.5-43.01.194-86.01.694-129 1.5-16.514-2.349-23.014-11.682-19.5-28a36.17 36.17 0 0 1 4-7L54.5 104c10.152-6.788 19.319-5.621 27.5 3.5a1406.345 1406.345 0 0 0 32 39c1.987 9.009-1.513 12.176-10.5 9.5a686.705 686.705 0 0 0-37-42.5 1968.412 1968.412 0 0 0-36.5 38c-1.88 6.62.62 9.954 7.5 10a8371.495 8371.495 0 0 1 125-1.5c2.423-.732 3.59-2.232 3.5-4.5L130.5 114c-1-.667-2-.667-3 0a111.557 111.557 0 0 1-12 13c-7.833 1.5-11-1.667-9.5-9.5a405.11 405.11 0 0 1 12.5-14.5c10.917-5.702 20.084-3.535 27.5 6.5a459.141 459.141 0 0 0 23 28l1-45c.69-1.85 1.856-3.184 3.5-4Z"/></svg>